<svg height="512pt" viewBox="0 0 512 512.07205" width="512pt" xmlns="http://www.w3.org/2000/svg"><path d="m110.964844 512c61.050781-.058594 110.601562-49.390625 110.933594-110.4375v-.070312l3.023437-60.160157h62.574219l2.667968 60.109375v.058594c.148438 44.917969 27.367188 85.3125 68.941407 102.3125 41.574219 17.003906 89.296875 7.257812 120.878906-24.679688 31.578125-31.941406 40.78125-79.773437 23.308594-121.152343.03125-.617188-.011719-1.238281-.125-1.851563-5.769531-20.90625-11.007813-39.890625-15.796875-57.273437.054687-.917969-.039063-1.835938-.28125-2.722657-.613282-1.972656-1.332032-3.882812-2.066406-5.785156-25.34375-91.9375-37.230469-135.253906-44.285157-161.613281.109375-1.113281-.007812-2.238281-.34375-3.304687-.613281-1.976563-1.332031-3.90625-2.082031-5.808594-4.09375-15.445313-6.460938-24.933594-9.847656-38.484375l-1.605469-6.410157c-11.664063-46.789062-40.265625-74.726562-76.507813-74.726562-20.433593.046875-40.011718 8.214844-54.417968 22.703125-14.402344 14.492187-22.457032 34.117187-22.382813 54.550781l.425781 8.121094h-35.453124l.441406-8.574219c-.046875-42.398437-34.402344-76.753906-76.800782-76.800781-36.230468 0-64.851562 27.9375-76.542968 74.726562-1.910156 7.679688-6.894532 26.28125-13.449219 50.449219l-.09375.253907v.136718c-22.304687 82.269532-62.660156 228.652344-63.207031 230.5625-.113282.613282-.15625 1.234375-.125 1.851563-14.4375 34.253906-10.761719 73.460937 9.796875 104.429687 20.554687 30.972656 55.253906 49.589844 92.421875 49.589844zm-69.253906-210.773438c11.082031-33.195312 42.824218-55.023437 77.789062-53.496093 43.074219 0 89.199219 30.867187 89.207031 76.382812l-1.144531 22.597657c-16.441406-29.378907-45.371094-49.664063-78.59375-55.109376-33.222656-5.445312-67.113281 4.542969-92.074219 27.136719 1.503907-5.484375 3.109375-11.320312 4.816407-17.511719zm46.785156-171c8.277344-28.019531 34.773437-46.640624 63.941406-44.9375 12.445312 1.105469 24.386719 5.445313 34.636719 12.589844l-22.679688 141.386719c-14.257812-5.789063-29.511719-8.710937-44.894531-8.601563-23.320312-.335937-46.050781 7.339844-64.394531 21.742188 11.488281-41.726562 23.996093-87.558594 33.390625-122.222656zm159.003906-27.785156v86.46875c-15.039062 3.882813-25.558594 17.425782-25.601562 32.957032v22.007812h-40.960938l22.683594-141.398438zm61.386719 0 22.691406 141.398438h-41.414063v-21.972656c-.054687-15.519532-10.574218-29.042969-25.597656-32.921876v-86.503906zm113.1875 22.425782c5.75 21.71875 14.917969 55.253906 34.6875 127.054687-18.234375-14.085937-40.703125-21.578125-63.742188-21.257813-15.386719-.109374-30.640625 2.8125-44.894531 8.601563l-22.683594-141.386719c10.25-7.140625 22.1875-11.480468 34.628906-12.589844 27.0625-1.648437 52.105469 14.335938 62.003907 39.578126zm53.09375 193.851562c-24.886719-22.527344-58.664063-32.527344-91.804688-27.171875-33.140625 5.351563-62.050781 25.476563-78.578125 54.691406l-.582031-13.078125c0-.128906.066406-.230468.066406-.359375 0-.128906-.09375-.367187-.109375-.5625l-.339844-7.679687c0-45.945313 46.121094-76.800782 89.199219-76.800782 32.671875-1.308593 62.773438 17.640626 75.722657 47.667969 2.058593 7.457031 4.183593 15.1875 6.425781 23.292969zm-277.699219-57.8125h24.429688v3.628906c0 18.847656 15.28125 34.132813 34.132812 34.132813s34.132812-15.285157 34.132812-34.132813v-3.621094h24.925782c-17.429688 16.554688-27.617188 39.324219-28.335938 63.351563h-61.007812c-.640625-24.035156-10.816406-46.828125-28.277344-63.359375zm58.5625-56.105469c9.425781 0 17.066406 7.640625 17.066406 17.066407v13.304687c-10.496094-6.328125-23.632812-6.328125-34.132812 0v-13.304687c0-9.425782 7.640625-17.066407 17.066406-17.066407zm0 42.664063c9.425781 0 17.066406 7.644531 17.066406 17.070312 0 9.425782-7.640625 17.066406-17.066406 17.066406s-17.066406-7.640624-17.066406-17.066406c0-9.425781 7.640625-17.070312 17.066406-17.070312zm145.066406 247.46875c-51.839844 0-93.863281-42.027344-93.863281-93.867188s42.023437-93.867187 93.863281-93.867187c51.84375 0 93.867188 42.027343 93.867188 93.867187-.058594 51.816406-42.050782 93.804688-93.867188 93.867188zm-110.480468-418.132813c.039062-32.976562 26.761718-59.695312 59.734374-59.734375 41.328126 0 56.363282 47.300782 59.988282 61.808594l1.375 5.519531c-15.078125-12.011719-34.199219-17.769531-53.402344-16.085937-16.210938 1.429687-31.707031 7.339844-44.757812 17.066406h-22.476563zm-128.453126-59.734375c32.816407 0 59.488282 26.46875 59.734376 59.28125l-.476563 9.027344h-22.460937c-13.050782-9.726562-28.550782-15.636719-44.765626-17.066406-19.207031-1.714844-38.335937 4.023437-53.425781 16.027344.554688-2.125 1.046875-4.046876 1.40625-5.460938 3.671875-14.507812 18.664063-61.808594 59.988281-61.808594zm-51.199218 290.132813c51.84375 0 93.867187 42.027343 93.867187 93.867187s-42.023437 93.867188-93.867187 93.867188c-51.839844 0-93.867188-42.027344-93.867188-93.867188.0625-51.816406 42.050782-93.804687 93.867188-93.867187zm0 0"/><path d="m110.964844 477.867188c31.0625 0 59.066406-18.710938 70.953125-47.410157 11.890625-28.699219 5.316406-61.730469-16.644531-83.695312-21.964844-21.964844-55-28.535157-83.699219-16.648438-28.695313 11.886719-47.410157 39.890625-47.410157 70.953125.046876 42.394532 34.40625 76.753906 76.800782 76.800782zm0-136.535157c32.992187 0 59.734375 26.746094 59.734375 59.734375 0 32.988282-26.742188 59.734375-59.734375 59.734375-32.988282 0-59.730469-26.746093-59.730469-59.734375.035156-32.972656 26.757813-59.695312 59.730469-59.734375zm0 0"/><path d="m401.097656 324.265625c-31.0625 0-59.066406 18.710937-70.953125 47.410156s-5.316406 61.730469 16.648438 83.695313c21.964843 21.964844 55 28.535156 83.695312 16.648437 28.699219-11.886719 47.410157-39.890625 47.410157-70.953125-.046876-42.394531-34.402344-76.753906-76.800782-76.800781zm0 136.535156c-32.988281 0-59.730468-26.746093-59.730468-59.734375 0-32.988281 26.742187-59.734375 59.730468-59.734375 32.992188 0 59.734375 26.746094 59.734375 59.734375-.039062 32.972656-26.757812 59.695313-59.734375 59.734375zm0 0"/><path d="m401.097656 358.398438c-23.550781.03125-42.636718 19.117187-42.664062 42.667968 0 4.714844 3.820312 8.535156 8.53125 8.535156 4.714844 0 8.535156-3.820312 8.535156-8.535156 0-14.136718 11.460938-25.601562 25.597656-25.601562 4.714844 0 8.535156-3.820313 8.535156-8.53125 0-4.714844-3.820312-8.535156-8.535156-8.535156zm0 0"/><path d="m76.832031 409.601562c4.714844 0 8.535157-3.820312 8.535157-8.535156 0-14.136718 11.460937-25.601562 25.597656-25.601562 4.714844 0 8.535156-3.820313 8.535156-8.53125 0-4.714844-3.820312-8.535156-8.535156-8.535156-23.550782.03125-42.636719 19.117187-42.664063 42.667968 0 4.714844 3.820313 8.535156 8.53125 8.535156zm0 0"/></svg>