<?xml version="1.0" encoding="iso-8859-1"?>
<!-- Generator: Adobe Illustrator 19.0.0, SVG Export Plug-In . SVG Version: 6.00 Build 0)  -->
<svg version="1.1" id="Capa_1" xmlns="http://www.w3.org/2000/svg" xmlns:xlink="http://www.w3.org/1999/xlink" x="0px" y="0px"
	 viewBox="0 0 512 512" style="enable-background:new 0 0 512 512;" xml:space="preserve">
<g>
	<g>
		<g>
			<path d="M333.827,325.526c24.795-34.995,33.454-74.068,36.439-99.21h4.059c6.296,0,12.114-3.415,15.181-8.913
				c8.224-14.735,8.224-32.329,0-47.065c-3.068-5.498-8.885-8.913-15.182-8.913h-0.8v-18.553c0-48.106-29.088-90.924-73.136-108.85
				l0.258-4.902c0.375-7.141-3.062-14.078-8.975-18.107l-0.589-0.401c-21.034-14.33-49.162-14.131-69.991,0.496
				c-1.087,0.763-2.085,1.618-2.987,2.548c-3.609,3.724-5.683,8.673-5.772,13.937c-0.007,0.438-0.001,0.879,0.019,1.322l0.072,1.568
				l0.145,3.157c-44.623,17.682-74.091,60.654-74.091,109.232v18.553h-0.8c-6.296,0-12.114,3.415-15.181,8.913
				c-8.224,14.735-8.224,32.329,0,47.065c3.068,5.498,8.885,8.913,15.182,8.913h4.059c2.984,25.142,11.643,64.214,36.439,99.21
				c9.151,12.916,20.941,23.038,34.42,29.891v9.657h-3.567c-23.625,0-45.645,9.387-62.003,26.432
				c-16.358,17.045-24.833,39.432-23.863,63.037l1.47,35.735c0.501,12.18,10.442,21.721,22.633,21.721h20.655h34.449h107.266h34.449
				h20.655c12.19,0,22.132-9.541,22.633-21.721l1.47-35.735c0.97-23.606-7.504-45.992-23.863-63.037
				c-16.358-17.045-38.378-26.432-62.003-26.432h-3.567v-9.657C312.887,348.564,324.676,338.442,333.827,325.526z M147.264,491.997
				L147.264,491.997c-1.425-0.001-2.588-1.116-2.646-2.541l-1.47-35.734c-0.484-11.763,2.107-23.123,7.41-33.23l6.422,71.506
				H147.264z M361.445,420.49c5.303,10.108,7.894,21.468,7.41,33.231l-1.47,35.735c-0.059,1.425-1.221,2.54-2.646,2.54h-9.715
				L361.445,420.49z M140.252,206.312v0.002h-0.993c-3.595-7.315-3.852-15.67-0.781-23.137c0.242-0.588,0.498-1.172,0.781-1.749
				h122.418c4.218,0,7.818-2.614,9.288-6.308c0.455-1.144,0.713-2.387,0.713-3.693c0-5.523-4.478-10.001-10.001-10.001H158.48
				v-18.553c0-37.937,21.665-71.736,55.074-87.818l3.532,76.795c0.254,5.518,4.938,9.821,10.45,9.53
				c5.518-0.254,9.785-4.933,9.531-10.45l-4.735-102.934c-0.009-0.206,0.085-0.399,0.254-0.518
				c14.058-9.872,33.039-10.007,47.236-0.334l0.588,0.4c0.172,0.117,0.273,0.319,0.262,0.526l-0.644,12.25c0,0.001,0,0.002,0,0.003
				l-4.76,90.54c-0.29,5.517,3.946,10.223,9.462,10.513c0.179,0.01,0.356,0.014,0.534,0.014c5.282,0,9.698-4.14,9.979-9.476
				l4.019-76.46c32.921,16.255,54.26,49.888,54.26,87.417v18.553h-11.725c-5.524,0-10.001,4.479-10.001,10.001
				c0,1.306,0.258,2.55,0.713,3.693c1.47,3.693,5.071,6.308,9.288,6.308h30.947c0.283,0.576,0.539,1.16,0.781,1.749
				c3.07,7.468,2.814,15.822-0.781,23.137h-0.993H140.252z M177.062,491.996l-8.363-93.124c4.207-3.255,8.793-5.991,13.635-8.142
				l9.095,101.266H177.062z M329.669,390.731c4.842,2.15,9.428,4.887,13.635,8.142l-8.364,93.124h-14.366L329.669,390.731z
				 M302.975,385.077c2.385,0,4.749,0.132,7.084,0.379l-9.569,106.541h-88.979l-9.569-106.541c2.336-0.247,4.699-0.379,7.084-0.379
				h4.812c4.636,18.979,21.776,33.11,42.162,33.11s37.526-14.131,42.162-33.11H302.975z M232.598,374.78v-9.706v-2.222
				c4.086,1.009,8.265,1.752,12.521,2.222c3.579,0.395,7.21,0.604,10.883,0.604s7.304-0.208,10.883-0.604
				c4.255-0.47,8.435-1.213,12.521-2.222v2.222h-0.002v9.706c0,3.692-0.863,7.187-2.392,10.296
				c-3.816,7.756-11.799,13.108-21.011,13.108c-9.212,0-17.195-5.353-21.011-13.108C233.461,381.967,232.598,378.473,232.598,374.78
				z M299.407,332.084c-6.119,4.32-12.847,7.672-20.003,9.966c-7.411,2.376-15.278,3.624-23.404,3.624
				c-8.126,0-15.993-1.248-23.404-3.624c-7.156-2.294-13.884-5.647-20.003-9.966c-6.89-4.863-13.013-10.944-18.098-18.122
				c-21.444-30.264-29.498-64.745-32.506-87.646h188.059c-2.987,22.861-11.029,57.283-32.542,87.646
				C312.421,321.14,306.298,327.22,299.407,332.084z"/>
			<path d="M310.968,167.605c-0.25-0.609-0.56-1.189-0.92-1.729c-0.36-0.55-0.78-1.061-1.24-1.521
				c-2.32-2.319-5.771-3.39-9.021-2.729c-0.64,0.12-1.27,0.32-1.87,0.57c-0.61,0.25-1.19,0.56-1.73,0.92
				c-0.55,0.359-1.06,0.779-1.52,1.239c-0.46,0.46-0.88,0.971-1.24,1.521c-0.36,0.54-0.67,1.12-0.92,1.729
				c-0.25,0.601-0.44,1.23-0.57,1.87c-0.13,0.641-0.2,1.3-0.2,1.95s0.07,1.311,0.2,1.96c0.121,0.584,0.298,1.166,0.522,1.734
				c0.018,0.045,0.03,0.091,0.048,0.136c0.25,0.6,0.56,1.18,0.92,1.72c0.36,0.55,0.78,1.061,1.24,1.521
				c0.46,0.46,0.97,0.88,1.52,1.24c0.54,0.369,1.12,0.67,1.73,0.92c0.6,0.25,1.23,0.449,1.87,0.569c0.64,0.13,1.3,0.2,1.95,0.2
				c2.63,0,5.211-1.07,7.071-2.93c0.46-0.46,0.88-0.971,1.24-1.521c0.36-0.54,0.67-1.12,0.92-1.72
				c0.018-0.045,0.031-0.091,0.048-0.136c0.224-0.568,0.401-1.151,0.522-1.734c0.13-0.649,0.2-1.31,0.2-1.96s-0.07-1.31-0.2-1.95
				C311.408,168.835,311.218,168.205,310.968,167.605z"/>
			<path d="M274.882,295.153c-1.385-0.301-2.839-0.318-4.272,0h-29.183c-1.434-0.319-2.889-0.302-4.276,0
				c-2.973,0.647-5.62,2.629-6.98,5.612c-2.294,5.024-0.08,10.957,4.945,13.251c0.896,0.409,1.803,0.786,2.716,1.14
				c5.852,2.269,12.018,3.408,18.186,3.408s12.335-1.139,18.186-3.408c0.913-0.354,1.82-0.73,2.716-1.14
				c5.024-2.293,7.238-8.227,4.944-13.252C280.504,297.782,277.857,295.801,274.882,295.153z"/>
		</g>
	</g>
</g>
<g>
</g>
<g>
</g>
<g>
</g>
<g>
</g>
<g>
</g>
<g>
</g>
<g>
</g>
<g>
</g>
<g>
</g>
<g>
</g>
<g>
</g>
<g>
</g>
<g>
</g>
<g>
</g>
<g>
</g>
</svg>
