<?xml version="1.0" encoding="iso-8859-1"?>
<!-- Generator: Adobe Illustrator 19.0.0, SVG Export Plug-In . SVG Version: 6.00 Build 0)  -->
<svg version="1.1" id="Capa_1" xmlns="http://www.w3.org/2000/svg" xmlns:xlink="http://www.w3.org/1999/xlink" x="0px" y="0px"
	 viewBox="0 0 456.704 456.704" style="enable-background:new 0 0 456.704 456.704;" xml:space="preserve">
<g>
	<g>
		<path d="M332.352,328.704c0-0.8,0-0.8,0-1.6h43.2c9.6,0,17.6-8,17.6-17.6v-45.6c0-9.6-8-17.6-17.6-17.6h-43.2c0-0.8,0-0.8,0-1.6
			v-45.6c0-9.6-8-17.6-17.6-17.6h-107.2c-4,0-7.2,0.8-9.6,3.2c-3.2-1.6-6.4-3.2-9.6-3.2h-107.2c-9.6,0-17.6,8-17.6,17.6v45.6
			c0,9.6,8,17.6,17.6,17.6h43.2c0,0.8,0,0.8,0,1.6v45.6c0,0.8,0,0.8,0,1.6h-43.2c-9.6,0-17.6,8-17.6,17.6v45.6
			c0,9.6,8,17.6,17.6,17.6h43.2c0,0.8,0,0.8,0,1.6v45.6c0,9.6,8,17.6,17.6,17.6h107.2c4,0,7.2-0.8,9.6-3.2c3.2,1.6,6.4,3.2,9.6,3.2
			h107.2c9.6,0,17.6-8,17.6-17.6v-45.6c0-9.6-8-17.6-17.6-17.6h-43.2c0-0.8,0-0.8,0-1.6V328.704z M207.552,196.704h107.2
			c0.8,0,1.6,0.8,1.6,1.6v45.6c0,0.8-0.8,1.6-1.6,1.6h-46.4h-19.2h-40.8c-0.8,0-1.6-0.8-1.6-1.6v-45.6
			C205.952,197.504,206.752,196.704,207.552,196.704z M207.552,263.104h40.8c0.8,0,1.6,0.8,1.6,1.6v45.6c0,0.8-0.8,1.6-1.6,1.6
			h-40.8h-19.2h-46.4c-0.8,0-1.6-0.8-1.6-1.6v-45.6c0-0.8,0.8-1.6,1.6-1.6h46.4H207.552z M81.152,246.304c-0.8,0-1.6-0.8-1.6-1.6
			v-45.6c0-0.8,0.8-1.6,1.6-1.6h107.2c0.8,0,1.6,0.8,1.6,1.6v45.6c0,0.8-0.8,1.6-1.6,1.6h-46.4H81.152z M81.152,377.504
			c-0.8,0-1.6-0.8-1.6-1.6v-45.6c0-0.8,0.8-1.6,1.6-1.6h60.8h46.4c0.8,0,1.6,0.8,1.6,1.6v45.6c0,0.8-0.8,1.6-1.6,1.6h-46.4H81.152z
			 M249.152,443.104h-107.2c-0.8,0-1.6-0.8-1.6-1.6v-45.6c0-0.8,0.8-1.6,1.6-1.6h46.4h19.2h40.8c0.8,0,1.6,0.8,1.6,1.6v45.6
			C250.752,442.304,249.952,443.104,249.152,443.104z M249.152,376.704h-40.8c-0.8,0-1.6-0.8-1.6-1.6v-45.6c0-0.8,0.8-1.6,1.6-1.6
			h40.8h19.2h46.4c0.8,0,1.6,0.8,1.6,1.6v45.6c0,0.8-0.8,1.6-1.6,1.6h-46.4H249.152z M375.552,393.504c0.8,0,1.6,0.8,1.6,1.6v45.6
			c0,0.8-0.8,1.6-1.6,1.6h-107.2c-0.8,0-1.6-0.8-1.6-1.6v-45.6c0-0.8,0.8-1.6,1.6-1.6h46.4H375.552z M314.752,311.904h-46.4
			c-0.8,0-1.6-0.8-1.6-1.6v-45.6c0-0.8,0.8-1.6,1.6-1.6h46.4h60.8c0.8,0,1.6,0.8,1.6,1.6v45.6c0,0.8-0.8,1.6-1.6,1.6H314.752z"/>
	</g>
</g>
<g>
	<g>
		<path d="M237.952,158.304l-24-92c-0.8-2.4-3.2-4.8-5.6-5.6c-2.4-0.8-5.6,0-8,2.4l-20,19.2v-13.6c0-2.4-0.8-4.8-3.2-6.4l-8.8-7.2
			c3.2-7.2,1.6-15.2-4-20.8l-32.8-29.6c-7.2-6.4-18.4-6.4-24.8,0.8l-1.6,1.6c-6.4,7.2-6.4,18.4,0.8,24.8l32.8,29.6
			c3.2,3.2,7.2,4.8,12,4.8h0.8c1.6,0,3.2-0.8,4.8-0.8l8,6.4v25.6l-30.4,30.4c-2.4,1.6-3.2,4.8-2.4,8c0.8,3.2,2.4,4.8,5.6,5.6
			l90.4,27.2c0.8,0,1.6,0,2.4,0c2.4,0,4-0.8,5.6-2.4C237.952,163.904,238.752,161.504,237.952,158.304z M153.152,48.704l-1.6,1.6
			c-0.8,0.8-1.6,0.8-1.6,0.8s-0.8,0-1.6-0.8l-32-29.6c-0.8-0.8-0.8-1.6,0-2.4l1.6-1.6c0.8-0.8,1.6-0.8,2.4,0l32.8,29.6
			C153.952,47.104,153.952,47.904,153.152,48.704z M154.752,129.504l17.6-17.6l16.8,16c1.6,1.6,3.2,2.4,5.6,2.4s4-0.8,5.6-2.4
			c3.2-3.2,3.2-8,0-11.2l-16.8-15.2l17.6-17.6l17.6,64.8L154.752,129.504z"/>
	</g>
</g>
<g>
</g>
<g>
</g>
<g>
</g>
<g>
</g>
<g>
</g>
<g>
</g>
<g>
</g>
<g>
</g>
<g>
</g>
<g>
</g>
<g>
</g>
<g>
</g>
<g>
</g>
<g>
</g>
<g>
</g>
</svg>
